# xmcd CD database generated by RipIT
#
# Track frame offsets:
# 151
# 24803
# 36055
# 52621
# 65250
# 67083
# 99727
# 121078
# 123350
# 142830
# 157742
# 160426
# 181967
# 196153
# 216608
# 230930
# 279815
# 288885
#
# Disc length: 3946 seconds
#
# Revision: 0
# Processed by: cddbd v1.5.2PL0 Copyright (c) Steve Scherf et al.
# Submitted via: RipIT 3.9.0 www.suwald.com/ripit/ripit.html on 2014-05-16 at 23:57
#
DISCID=f40f6812
DTITLE=Günter Stössel und Alexander Wolfrum - Zammgrazzich
DYEAR=2009
DGENRE=Traditional
TTITLE0=Die Nachber
TTITLE1=A oberfränkischer Superstar
TTITLE2=Manchmol kennd i greina wäi a Sau
TTITLE3=Ich hau da Aane nei!
TTITLE4=Immer am Debbich bleim
TTITLE5=Schdrohwidwer Blues
TTITLE6=Unterboden Boogie
TTITLE7=Der Bandwurm
TTITLE8=Miech zäichd's in Süd'n wider nunder
TTITLE9=Bayreuth-Song
TTITLE10=Tempo!
TTITLE11=Weihnachtslied
TTITLE12=Analyse
TTITLE13=Cocaine, i glaab i schbinn
TTITLE14=Es lebe die Kleinkunst
TTITLE15=Globetrottel - Rag II
TTITLE16=In der Fräih
TTITLE17=Be Cheese
EXTD=
EXTT0=
EXTT1=
EXTT2=
EXTT3=
EXTT4=
EXTT5=
EXTT6=
EXTT7=
EXTT8=
EXTT9=
EXTT10=
EXTT11=
EXTT12=
EXTT13=
EXTT14=
EXTT15=
EXTT16=
EXTT17=
PLAYORDER=
